<?xml version="1.0" encoding="UTF-8" standalone="no"?>
<!-- Created with Inkscape (http://www.inkscape.org/) -->

<svg
   xmlns:dc="http://purl.org/dc/elements/1.1/"
   xmlns:cc="http://creativecommons.org/ns#"
   xmlns:rdf="http://www.w3.org/1999/02/22-rdf-syntax-ns#"
   xmlns:svg="http://www.w3.org/2000/svg"
   xmlns="http://www.w3.org/2000/svg"
   xmlns:sodipodi="http://sodipodi.sourceforge.net/DTD/sodipodi-0.dtd"
   xmlns:inkscape="http://www.inkscape.org/namespaces/inkscape"
   id="svg4702"
   version="1.1"
   inkscape:version="0.48.2 r9819"
   width="1000"
   height="351.14584"
   xml:space="preserve"
   sodipodi:docname="RNS Completion of all-share merger 7 Aug 2014.pdf"><metadata
     id="metadata4708"><rdf:RDF><cc:Work
         rdf:about=""><dc:format>image/svg+xml</dc:format><dc:type
           rdf:resource="http://purl.org/dc/dcmitype/StillImage" /><dc:title></dc:title></cc:Work></rdf:RDF></metadata><defs
     id="defs4706"><clipPath
       clipPathUnits="userSpaceOnUse"
       id="clipPath4720"><path
         d="m 0.00125,-0.09137 595.41,0 0,842.01 -595.41,0 0,-842.01 z"
         clip-rule="evenodd"
         id="path4722"
         inkscape:connector-curvature="0" /></clipPath><clipPath
       clipPathUnits="userSpaceOnUse"
       id="clipPath4998"><path
         d="M -9.82e-7,654.12 595.32,654.12 l 0,145.2 L -9.82e-7,799.32 l 0,-145.2 z"
         clip-rule="evenodd"
         id="path5000"
         inkscape:connector-curvature="0" /></clipPath><clipPath
       clipPathUnits="userSpaceOnUse"
       id="clipPath5008"><path
         d="m 0,0 216.52,0 0,127.42 L 0,127.42 0,0 z"
         id="path5010"
         inkscape:connector-curvature="0" /></clipPath><clipPath
       clipPathUnits="userSpaceOnUse"
       id="clipPath5022"><path
         d="m 0,127.42 0,-127.9635 595.32,0 0,127.9635"
         clip-rule="evenodd"
         id="path5024"
         inkscape:connector-curvature="0" /></clipPath><clipPath
       clipPathUnits="userSpaceOnUse"
       id="clipPath5032"><path
         d="m 0,127.42 0,-127.9635 595.32,0 0,127.9635"
         clip-rule="evenodd"
         id="path5034"
         inkscape:connector-curvature="0" /></clipPath><clipPath
       clipPathUnits="userSpaceOnUse"
       id="clipPath5042"><path
         d="m 0,127.42 0,-127.9635 595.32,0 0,127.9635"
         clip-rule="evenodd"
         id="path5044"
         inkscape:connector-curvature="0" /></clipPath><clipPath
       clipPathUnits="userSpaceOnUse"
       id="clipPath5052"><path
         d="m 0,127.42 0,-127.9635 595.32,0 0,127.9635"
         clip-rule="evenodd"
         id="path5054"
         inkscape:connector-curvature="0" /></clipPath><clipPath
       clipPathUnits="userSpaceOnUse"
       id="clipPath5062"><path
         d="m 0,127.42 0,-127.9635 595.32,0 0,127.9635"
         clip-rule="evenodd"
         id="path5064"
         inkscape:connector-curvature="0" /></clipPath><clipPath
       clipPathUnits="userSpaceOnUse"
       id="clipPath5072"><path
         d="m 0,127.42 0,-127.9635 595.32,0 0,127.9635"
         clip-rule="evenodd"
         id="path5074"
         inkscape:connector-curvature="0" /></clipPath><clipPath
       clipPathUnits="userSpaceOnUse"
       id="clipPath5082"><path
         d="m 0,127.42 0,-127.9635 595.32,0 0,127.9635"
         clip-rule="evenodd"
         id="path5084"
         inkscape:connector-curvature="0" /></clipPath><clipPath
       clipPathUnits="userSpaceOnUse"
       id="clipPath5092"><path
         d="m 0,127.42 0,-127.9635 595.32,0 0,127.9635"
         clip-rule="evenodd"
         id="path5094"
         inkscape:connector-curvature="0" /></clipPath></defs><sodipodi:namedview
     pagecolor="#ffffff"
     bordercolor="#666666"
     borderopacity="1"
     objecttolerance="10"
     gridtolerance="10"
     guidetolerance="10"
     inkscape:pageopacity="0"
     inkscape:pageshadow="2"
     inkscape:window-width="1052"
     inkscape:window-height="1024"
     id="namedview4704"
     showgrid="false"
     fit-margin-left="0.5"
     fit-margin-bottom="0.5"
     fit-margin-top="0.5"
     fit-margin-right="0.5"
     inkscape:zoom="0.25550544"
     inkscape:cx="929.35375"
     inkscape:cy="-606.82356"
     inkscape:window-x="857"
     inkscape:window-y="-10"
     inkscape:window-maximized="0"
     inkscape:current-layer="g4710" /><g
     id="g4710"
     inkscape:groupmode="layer"
     inkscape:label="RNS Completion of all-share merger 7 Aug 2014"
     transform="matrix(1.25,0,0,-1.25,-257.31588,1190.9339)"><g
       id="g5018"
       transform="matrix(6.0942471,0,0,6.1285289,59.503229,604.72472)"
       style="fill:#0082a2;fill-opacity:1"><g
         id="g5020"
         clip-path="url(#clipPath5022)"
         style="fill:#0082a2;fill-opacity:1"><path
           d="m 61.962,29.553 0,0 c -0.525,4.053 -3.825,6.229 -7.801,6.229 -5.851,0 -9.002,-4.503 -9.002,-10.057 0,-5.479 2.926,-9.907 8.777,-9.907 4.801,0 7.801,2.927 8.252,7.655 l -2.551,0 c -0.225,-3.152 -2.1,-5.478 -5.476,-5.478 -4.501,0 -6.451,3.602 -6.451,7.955 0,3.978 1.95,7.656 6.451,7.656 2.625,0 4.801,-1.351 5.326,-4.053 l 2.475,0 z m 16.729,-13.285 0,0 2.25,0 0,6.155 c 0,3.452 1.351,5.554 4.951,5.554 l 0,2.401 c -2.4,0.075 -3.9,-0.975 -5.026,-3.227 l -0.075,0 0,2.927 -2.1,0 0,-13.81 z m 19.504,7.055 0,0 c 0,-2.702 -1.05,-5.328 -4.126,-5.328 -3.151,0 -4.351,2.476 -4.351,5.178 0,2.627 1.125,5.179 4.201,5.179 2.926,0 4.276,-2.477 4.276,-5.029 z m -10.652,-12.308 0,0 2.25,0 0,7.13 0.075,0 c 0.975,-1.651 3.001,-2.177 4.426,-2.177 4.201,0 6.306,3.302 6.306,7.205 0,3.828 -2.105,7.205 -6.381,7.205 -1.875,0 -3.601,-0.675 -4.351,-2.176 l -0.075,0 0,1.876 -2.25,0 0,-19.063 z m 27.377,12.158 0,0 c 0,-4.053 2.25,-7.205 6.68,-7.205 4.35,0 6.68,3.152 6.68,7.205 0,4.053 -2.33,7.205 -6.68,7.205 -4.43,0 -6.68,-3.152 -6.68,-7.205 z m 2.33,0 0,0 c 0,3.378 1.95,5.179 4.35,5.179 2.32,0 4.28,-1.801 4.28,-5.179 0,-3.302 -1.96,-5.178 -4.28,-5.178 -2.4,0 -4.35,1.876 -4.35,5.178 z m 12.45,-6.905 0,0 2.25,0 0,7.806 c 0,2.477 1.35,4.278 4.13,4.278 1.72,0 2.77,-1.051 2.77,-2.702 l 0,-9.382 2.25,0 0,9.082 c 0,2.927 -1.12,5.028 -4.72,5.028 -1.95,0 -3.53,-0.825 -4.5,-2.476 l 0,0 0,2.176 -2.18,0 0,-13.81 z m 23.03,4.428 0,0 c -0.37,-1.801 -1.65,-2.701 -3.52,-2.701 -3.01,0 -4.36,2.101 -4.28,4.503 l 10.28,0 c 0.15,3.302 -1.35,7.88 -6.23,7.88 -3.75,0 -6.45,-3.002 -6.45,-7.13 0.15,-4.203 2.17,-7.28 6.6,-7.28 3.08,0 5.25,1.651 5.85,4.728 l -2.25,0 z m -7.8,3.828 0,0 c 0.15,2.102 1.57,3.828 3.9,3.828 2.25,0 3.9,-1.726 3.98,-3.828 l -7.88,0 z"
           style="fill:#0082a2;fill-opacity:1;fill-rule:nonzero;stroke:none"
           id="path5026"
           inkscape:connector-curvature="0" /></g></g><g
       id="g5028"
       transform="matrix(6.0942471,0,0,6.1285289,59.503229,604.72472)"
       style="fill:#0082a2;fill-opacity:1"><g
         id="g5030"
         clip-path="url(#clipPath5032)"
         style="fill:#0082a2;fill-opacity:1"><path
           d="m 65.938,23.323 0,0 c 0,2.552 1.351,5.029 4.276,5.029 3.001,0 4.201,-2.552 4.201,-5.179 0,-2.702 -1.275,-5.178 -4.351,-5.178 -3.075,0 -4.126,2.626 -4.126,5.328 z m 10.652,6.755 0,0 -2.25,0 0,-1.876 -0.075,0 c -0.75,1.501 -2.476,2.176 -4.351,2.176 -4.276,0 -6.376,-3.377 -6.376,-7.205 0,-3.903 2.1,-7.205 6.301,-7.205 1.425,0 3.451,0.526 4.426,2.177 l 0.075,0 0,-1.802 2.25,0 0,13.735 z"
           style="fill:#0082a2;fill-opacity:1;fill-rule:nonzero;stroke:none"
           id="path5036"
           inkscape:connector-curvature="0" /></g></g><g
       id="g5038"
       transform="matrix(6.0942471,0,0,6.1285289,59.503229,604.72472)"
       style="fill:#1b2044;fill-opacity:1"><g
         id="g5040"
         clip-path="url(#clipPath5042)"
         style="fill:#1b2044;fill-opacity:1"><path
           d="m 46.134,37.658 0,0 6.527,0 c 6.301,0 9.076,3.528 9.076,9.907 0,6.155 -3.225,9.082 -9.076,9.082 l -6.527,0 0,-18.989 z m 2.476,16.812 0,0 4.276,0 c 4.651,0 6.376,-2.702 6.376,-7.205 0,-7.055 -4.651,-7.505 -6.451,-7.505 l -4.201,0 0,14.71 z m 14.628,-16.812 0,0 2.25,0 0,13.735 -2.25,0 0,-13.735 z m 2.25,18.989 0,0 -2.25,0 0,-2.777 2.25,0 0,2.777 z m 0.9,-18.989 0,0 2.701,0 3.826,5.704 3.825,-5.704 2.926,0 -5.326,7.431 4.726,6.304 -2.701,0 -3.45,-4.803 -3.301,4.803 -2.851,0 4.726,-6.529 -5.101,-7.206 z m 12.078,6.83 0,0 c 0,-3.978 2.325,-7.205 6.676,-7.205 4.351,0 6.677,3.227 6.677,7.205 0,4.053 -2.326,7.205 -6.677,7.205 -4.351,0 -6.676,-3.152 -6.676,-7.205 z m 2.4,0 0,0 c 0,3.378 1.951,5.254 4.276,5.254 2.401,0 4.276,-1.876 4.276,-5.254 0,-3.302 -1.875,-5.178 -4.276,-5.178 -2.325,0 -4.276,1.876 -4.276,5.178 z m 12.003,-6.83 0,0 2.325,0 0,7.731 c 0,2.477 1.275,4.353 4.051,4.353 1.725,0 2.775,-1.126 2.775,-2.777 l 0,-9.307 2.25,0 0,9.007 c 0,3.002 -1.12,5.028 -4.725,5.028 -1.95,0 -3.526,-0.75 -4.426,-2.476 l -0.075,0 0,2.176 -2.175,0 0,-13.735 z m 12.751,4.278 0,0 c 0.15,-3.377 2.78,-4.653 5.85,-4.653 2.78,0 5.85,1.126 5.85,4.353 0,2.702 -2.25,3.453 -4.5,3.903 -2.1,0.525 -4.5,0.826 -4.5,2.402 0,1.426 1.58,1.801 2.93,1.801 1.5,0 3.07,-0.6 3.22,-2.327 l 2.25,0 c -0.22,3.303 -2.62,4.278 -5.62,4.278 -2.4,0 -5.18,-1.125 -5.18,-3.902 0,-2.627 2.25,-3.378 4.5,-3.903 2.25,-0.45 4.5,-0.751 4.5,-2.552 0,-1.726 -1.87,-2.026 -3.3,-2.026 -1.87,0 -3.6,0.6 -3.67,2.626 l -2.33,0 z"
           style="fill:#1b2044;fill-opacity:1;fill-rule:nonzero;stroke:none"
           id="path5046"
           inkscape:connector-curvature="0" /></g></g><g
       id="g5048"
       transform="matrix(6.0942471,0,0,6.1285289,59.503229,604.72472)"
       style="fill:#0082a2;fill-opacity:1"><g
         id="g5050"
         clip-path="url(#clipPath5052)"
         style="fill:#0082a2;fill-opacity:1"><path
           d="m 102.02,16.268 0,0 2.25,0 0,7.806 c 0,2.477 1.35,4.278 4.05,4.278 1.73,0 2.85,-1.051 2.85,-2.702 l 0,-9.382 2.25,0 0,9.082 c 0,2.927 -1.12,5.028 -4.72,5.028 -1.65,0 -3.6,-0.675 -4.35,-2.326 l -0.08,0 0,7.28 -2.25,0 0,-19.064 z"
           style="fill:#0082a2;fill-opacity:1;fill-rule:nonzero;stroke:none"
           id="path5056"
           inkscape:connector-curvature="0" /></g></g><g
       id="g5058"
       transform="matrix(6.0942471,0,0,6.1285289,59.503229,604.72472)"
       style="fill:#0082a2;fill-opacity:1"><g
         id="g5060"
         clip-path="url(#clipPath5062)"
         style="fill:#0082a2;fill-opacity:1"><path
           d="m 34.507,54.771 0,0 c 1.425,-1.351 2.701,-2.852 3.826,-4.579 0.225,0.15 0.375,0.225 0.6,0.376 l 0,6.154 c -1.575,-0.45 -3.076,-1.126 -4.426,-1.951 z"
           style="fill:#0082a2;fill-opacity:1;fill-rule:nonzero;stroke:none"
           id="path5066"
           inkscape:connector-curvature="0" /></g></g><g
       id="g5068"
       transform="matrix(6.0942471,0,0,6.1285289,59.503229,604.72472)"
       style="fill:#1b2044;fill-opacity:1"><g
         id="g5070"
         clip-path="url(#clipPath5072)"
         style="fill:#1b2044;fill-opacity:1"><path
           d="m 24.08,22.498 0,0 0,-6.23 c 1.5,0.526 3,1.126 4.426,1.952 -1.501,1.351 -2.776,2.852 -3.826,4.578 -0.225,-0.15 -0.45,-0.225 -0.6,-0.3 z"
           style="fill:#1b2044;fill-opacity:1;fill-rule:nonzero;stroke:none"
           id="path5076"
           inkscape:connector-curvature="0" /></g></g><g
       id="g5078"
       transform="matrix(6.0942471,0,0,6.1285289,59.503229,604.72472)"
       style="fill:#1b2044;fill-opacity:1"><g
         id="g5080"
         clip-path="url(#clipPath5082)"
         style="fill:#1b2044;fill-opacity:1"><path
           d="m 33.082,36.608 0,0 0.075,-0.526 c 0.075,-3.227 1.425,-6.229 3.75,-8.406 1.351,2.777 2.026,5.855 2.026,8.932 0,9.306 -6.076,17.412 -14.853,20.114 l 0,-6.154 c 5.476,-2.477 9.002,-7.881 9.002,-13.96 z"
           style="fill:#1b2044;fill-opacity:1;fill-rule:nonzero;stroke:none"
           id="path5086"
           inkscape:connector-curvature="0" /></g></g><g
       id="g5088"
       transform="matrix(6.0942471,0,0,6.1285289,59.503229,604.72472)"
       style="fill:#0082a2;fill-opacity:1"><g
         id="g5090"
         clip-path="url(#clipPath5092)"
         style="fill:#0082a2;fill-opacity:1"><path
           d="m 26.105,45.389 0,0 c -1.35,-2.777 -2.025,-5.854 -2.025,-8.931 0,-6.455 2.925,-12.459 7.951,-16.512 l 0.075,-0.075 c 2.101,-1.651 4.351,-2.852 6.827,-3.603 l 0,6.23 c -0.975,0.45 -1.951,0.975 -2.851,1.651 -3.825,2.852 -6.151,7.43 -6.151,12.234 l -0.075,0.15 0,0.075 c 0,3.377 -1.35,6.529 -3.751,8.781 z"
           style="fill:#0082a2;fill-opacity:1;fill-rule:nonzero;stroke:none"
           id="path5096"
           inkscape:connector-curvature="0" /></g></g></g></svg>